<svg width="150" height="150" viewBox="0 0 150 150" xmlns="http://www.w3.org/2000/svg">
  <defs>
    <radialGradient id="catGradient" cx="0.3" cy="0.3" r="0.8">
      <stop offset="0%" style="stop-color:#ffa8a8;stop-opacity:1" />
      <stop offset="100%" style="stop-color:#f03e3e;stop-opacity:1" />
    </radialGradient>
    <linearGradient id="stripeGradient" x1="0%" y1="0%" x2="100%" y2="0%">
      <stop offset="0%" style="stop-color:#fd7e14;stop-opacity:1" />
      <stop offset="100%" style="stop-color:#e8590c;stop-opacity:1" />
    </linearGradient>
  </defs>
  
  <!-- Cat body -->
  <ellipse cx="75" cy="90" rx="35" ry="45" fill="url(#catGradient)" stroke="#c92a2a" stroke-width="2"/>
  
  <!-- Cat head -->
  <circle cx="75" cy="55" r="30" fill="url(#catGradient)" stroke="#c92a2a" stroke-width="2"/>
  
  <!-- Cat ears -->
  <path d="M 55 35 L 50 15 L 70 25 Z" fill="url(#catGradient)" stroke="#c92a2a" stroke-width="2"/>
  <path d="M 80 25 L 100 15 L 95 35 Z" fill="url(#catGradient)" stroke="#c92a2a" stroke-width="2"/>
  
  <!-- Inner ears -->
  <path d="M 57 30 L 55 20 L 65 25 Z" fill="#ffb3ba"/>
  <path d="M 85 25 L 95 20 L 93 30 Z" fill="#ffb3ba"/>
  
  <!-- Eyes -->
  <ellipse cx="65" cy="50" rx="6" ry="8" fill="#000"/>
  <ellipse cx="85" cy="50" rx="6" ry="8" fill="#000"/>
  
  <!-- Eye highlights -->
  <circle cx="67" cy="47" r="2" fill="#fff"/>
  <circle cx="87" cy="47" r="2" fill="#fff"/>
  
  <!-- Nose -->
  <path d="M 75 58 L 72 62 L 78 62 Z" fill="#ff6b9d"/>
  
  <!-- Mouth -->
  <path d="M 75 62 Q 70 67 65 65" fill="none" stroke="#000" stroke-width="2" stroke-linecap="round"/>
  <path d="M 75 62 Q 80 67 85 65" fill="none" stroke="#000" stroke-width="2" stroke-linecap="round"/>
  
  <!-- Whiskers -->
  <line x1="45" y1="55" x2="60" y2="57" stroke="#000" stroke-width="2" stroke-linecap="round"/>
  <line x1="45" y1="62" x2="60" y2="62" stroke="#000" stroke-width="2" stroke-linecap="round"/>
  <line x1="90" y1="57" x2="105" y2="55" stroke="#000" stroke-width="2" stroke-linecap="round"/>
  <line x1="90" y1="62" x2="105" y2="62" stroke="#000" stroke-width="2" stroke-linecap="round"/>
  
  <!-- Stripes -->
  <ellipse cx="75" cy="85" rx="25" ry="3" fill="url(#stripeGradient)" opacity="0.7"/>
  <ellipse cx="75" cy="95" rx="25" ry="3" fill="url(#stripeGradient)" opacity="0.7"/>
  <ellipse cx="75" cy="105" rx="25" ry="3" fill="url(#stripeGradient)" opacity="0.7"/>
  
  <!-- Tail -->
  <path d="M 110 90 Q 125 80 130 100 Q 125 120 115 110" fill="url(#catGradient)" stroke="#c92a2a" stroke-width="2"/>
</svg>